<?xml version="1.0" encoding="utf-8" standalone="no"?>
<!DOCTYPE svg PUBLIC "-//W3C//DTD SVG 1.1//EN"
  "http://www.w3.org/Graphics/SVG/1.1/DTD/svg11.dtd">
<svg xmlns:xlink="http://www.w3.org/1999/xlink" width="221.68375pt" height="160.849422pt" viewBox="0 0 221.68375 160.849422" xmlns="http://www.w3.org/2000/svg" version="1.1">
 <metadata>
  <rdf:RDF xmlns:dc="http://purl.org/dc/elements/1.1/" xmlns:cc="http://creativecommons.org/ns#" xmlns:rdf="http://www.w3.org/1999/02/22-rdf-syntax-ns#">
   <cc:Work>
    <dc:type rdf:resource="http://purl.org/dc/dcmitype/StillImage"/>
    <dc:date>2026-08-23T21:38:19.738593</dc:date>
    <dc:format>image/svg+xml</dc:format>
    <dc:creator>
     <cc:Agent>
      <dc:title>Matplotlib v3.10.1, https://matplotlib.org/</dc:title>
     </cc:Agent>
    </dc:creator>
   </cc:Work>
  </rdf:RDF>
 </metadata>
 <defs>
  <style type="text/css">*{stroke-linejoin: round; stroke-linecap: butt}</style>
 </defs>
 <g id="figure_1">
  <g id="patch_1">
   <path d="M 0 160.849422
L 221.68375 160.849422
L 221.68375 0
L 0 0
z
" style="fill: #ffffff"/>
  </g>
  <g id="axes_1">
   <g id="patch_2">
    <path d="M 39.09375 130.818672
L 217.36375 130.818672
L 217.36375 14.778672
L 39.09375 14.778672
z
" style="fill: #ffffff"/>
   </g>
   <g id="matplotlib.axis_1">
    <g id="xtick_1">
     <g id="line2d_1">
      <path d="M 67.766547 130.818672
L 67.766547 14.778672
" clip-path="url(#p4cf2313242)" style="fill: none; stroke: #d9d9d9; stroke-opacity: 0.75; stroke-width: 0.45; stroke-linecap: square"/>
     </g>
     <g id="line2d_2">
      <defs>
       <path id="m748e6bea9f" d="M 0 0
L 0 3.5
" style="stroke: #000000; stroke-width: 0.65"/>
      </defs>
      <g>
       <use xlink:href="#m748e6bea9f" x="67.766547" y="130.818672" style="stroke: #000000; stroke-width: 0.65"/>
      </g>
     </g>
     <g id="text_1">
      <text style="font-size: 7.2px; font-family: 'DejaVu Sans', sans-serif; text-anchor: middle" x="67.766547" y="143.289547" transform="rotate(-0 67.766547 143.289547)">15</text>
     </g>
    </g>
    <g id="xtick_2">
     <g id="line2d_3">
      <path d="M 130.098715 130.818672
L 130.098715 14.778672
" clip-path="url(#p4cf2313242)" style="fill: none; stroke: #d9d9d9; stroke-opacity: 0.75; stroke-width: 0.45; stroke-linecap: square"/>
     </g>
     <g id="line2d_4">
      <g>
       <use xlink:href="#m748e6bea9f" x="130.098715" y="130.818672" style="stroke: #000000; stroke-width: 0.65"/>
      </g>
     </g>
     <g id="text_2">
      <text style="font-size: 7.2px; font-family: 'DejaVu Sans', sans-serif; text-anchor: middle" x="130.098715" y="143.289547" transform="rotate(-0 130.098715 143.289547)">20</text>
     </g>
    </g>
    <g id="xtick_3">
     <g id="line2d_5">
      <path d="M 192.430883 130.818672
L 192.430883 14.778672
" clip-path="url(#p4cf2313242)" style="fill: none; stroke: #d9d9d9; stroke-opacity: 0.75; stroke-width: 0.45; stroke-linecap: square"/>
     </g>
     <g id="line2d_6">
      <g>
       <use xlink:href="#m748e6bea9f" x="192.430883" y="130.818672" style="stroke: #000000; stroke-width: 0.65"/>
      </g>
     </g>
     <g id="text_3">
      <text style="font-size: 7.2px; font-family: 'DejaVu Sans', sans-serif; text-anchor: middle" x="192.430883" y="143.289547" transform="rotate(-0 192.430883 143.289547)">25</text>
     </g>
    </g>
    <g id="text_4">
     <text style="font-size: 8px; font-family: 'DejaVu Sans', sans-serif; text-anchor: middle" x="128.22875" y="154.865672" transform="rotate(-0 128.22875 154.865672)">Whole-model reduction (%)</text>
    </g>
   </g>
   <g id="matplotlib.axis_2">
    <g id="ytick_1">
     <g id="line2d_7">
      <path d="M 39.09375 122.5301
L 217.36375 122.5301
" clip-path="url(#p4cf2313242)" style="fill: none; stroke: #d9d9d9; stroke-opacity: 0.75; stroke-width: 0.45; stroke-linecap: square"/>
     </g>
     <g id="line2d_8">
      <defs>
       <path id="m6659071d1d" d="M 0 0
L -3.5 0
" style="stroke: #000000; stroke-width: 0.65"/>
      </defs>
      <g>
       <use xlink:href="#m6659071d1d" x="39.09375" y="122.5301" style="stroke: #000000; stroke-width: 0.65"/>
      </g>
     </g>
     <g id="text_5">
      <text style="font-size: 7.2px; font-family: 'DejaVu Sans', sans-serif; text-anchor: end" x="32.09375" y="125.265538" transform="rotate(-0 32.09375 125.265538)">0.32</text>
     </g>
    </g>
    <g id="ytick_2">
     <g id="line2d_9">
      <path d="M 39.09375 105.952958
L 217.36375 105.952958
" clip-path="url(#p4cf2313242)" style="fill: none; stroke: #d9d9d9; stroke-opacity: 0.75; stroke-width: 0.45; stroke-linecap: square"/>
     </g>
     <g id="line2d_10">
      <g>
       <use xlink:href="#m6659071d1d" x="39.09375" y="105.952958" style="stroke: #000000; stroke-width: 0.65"/>
      </g>
     </g>
     <g id="text_6">
      <text style="font-size: 7.2px; font-family: 'DejaVu Sans', sans-serif; text-anchor: end" x="32.09375" y="108.688395" transform="rotate(-0 32.09375 108.688395)">0.33</text>
     </g>
    </g>
    <g id="ytick_3">
     <g id="line2d_11">
      <path d="M 39.09375 89.375815
L 217.36375 89.375815
" clip-path="url(#p4cf2313242)" style="fill: none; stroke: #d9d9d9; stroke-opacity: 0.75; stroke-width: 0.45; stroke-linecap: square"/>
     </g>
     <g id="line2d_12">
      <g>
       <use xlink:href="#m6659071d1d" x="39.09375" y="89.375815" style="stroke: #000000; stroke-width: 0.65"/>
      </g>
     </g>
     <g id="text_7">
      <text style="font-size: 7.2px; font-family: 'DejaVu Sans', sans-serif; text-anchor: end" x="32.09375" y="92.111252" transform="rotate(-0 32.09375 92.111252)">0.34</text>
     </g>
    </g>
    <g id="ytick_4">
     <g id="line2d_13">
      <path d="M 39.09375 72.798672
L 217.36375 72.798672
" clip-path="url(#p4cf2313242)" style="fill: none; stroke: #d9d9d9; stroke-opacity: 0.75; stroke-width: 0.45; stroke-linecap: square"/>
     </g>
     <g id="line2d_14">
      <g>
       <use xlink:href="#m6659071d1d" x="39.09375" y="72.798672" style="stroke: #000000; stroke-width: 0.65"/>
      </g>
     </g>
     <g id="text_8">
      <text style="font-size: 7.2px; font-family: 'DejaVu Sans', sans-serif; text-anchor: end" x="32.09375" y="75.534109" transform="rotate(-0 32.09375 75.534109)">0.35</text>
     </g>
    </g>
    <g id="ytick_5">
     <g id="line2d_15">
      <path d="M 39.09375 56.221529
L 217.36375 56.221529
" clip-path="url(#p4cf2313242)" style="fill: none; stroke: #d9d9d9; stroke-opacity: 0.75; stroke-width: 0.45; stroke-linecap: square"/>
     </g>
     <g id="line2d_16">
      <g>
       <use xlink:href="#m6659071d1d" x="39.09375" y="56.221529" style="stroke: #000000; stroke-width: 0.65"/>
      </g>
     </g>
     <g id="text_9">
      <text style="font-size: 7.2px; font-family: 'DejaVu Sans', sans-serif; text-anchor: end" x="32.09375" y="58.956967" transform="rotate(-0 32.09375 58.956967)">0.36</text>
     </g>
    </g>
    <g id="ytick_6">
     <g id="line2d_17">
      <path d="M 39.09375 39.644386
L 217.36375 39.644386
" clip-path="url(#p4cf2313242)" style="fill: none; stroke: #d9d9d9; stroke-opacity: 0.75; stroke-width: 0.45; stroke-linecap: square"/>
     </g>
     <g id="line2d_18">
      <g>
       <use xlink:href="#m6659071d1d" x="39.09375" y="39.644386" style="stroke: #000000; stroke-width: 0.65"/>
      </g>
     </g>
     <g id="text_10">
      <text style="font-size: 7.2px; font-family: 'DejaVu Sans', sans-serif; text-anchor: end" x="32.09375" y="42.379824" transform="rotate(-0 32.09375 42.379824)">0.37</text>
     </g>
    </g>
    <g id="ytick_7">
     <g id="line2d_19">
      <path d="M 39.09375 23.067243
L 217.36375 23.067243
" clip-path="url(#p4cf2313242)" style="fill: none; stroke: #d9d9d9; stroke-opacity: 0.75; stroke-width: 0.45; stroke-linecap: square"/>
     </g>
     <g id="line2d_20">
      <g>
       <use xlink:href="#m6659071d1d" x="39.09375" y="23.067243" style="stroke: #000000; stroke-width: 0.65"/>
      </g>
     </g>
     <g id="text_11">
      <text style="font-size: 7.2px; font-family: 'DejaVu Sans', sans-serif; text-anchor: end" x="32.09375" y="25.802681" transform="rotate(-0 32.09375 25.802681)">0.38</text>
     </g>
    </g>
    <g id="text_12">
     <text style="font-size: 8px; font-family: 'DejaVu Sans', sans-serif; text-anchor: middle" x="10.39875" y="72.798672" transform="rotate(-90 10.39875 72.798672)">7-task macro accuracy</text>
    </g>
   </g>
   <g id="patch_3">
    <path d="M 39.09375 130.818672
L 39.09375 14.778672
" style="fill: none; stroke: #000000; stroke-width: 0.75; stroke-linejoin: miter; stroke-linecap: square"/>
   </g>
   <g id="patch_4">
    <path d="M 39.09375 130.818672
L 217.36375 130.818672
" style="fill: none; stroke: #000000; stroke-width: 0.75; stroke-linejoin: miter; stroke-linecap: square"/>
   </g>
   <g id="text_13">
    <text style="font-weight: 600; font-size: 8.5px; font-family: 'DejaVu Sans', sans-serif; text-anchor: middle" x="128.22875" y="10.778672" transform="rotate(-0 128.22875 10.778672)">Pure</text>
   </g>
   <g id="line2d_21">
    <path d="M 67.766547 102.637529
L 130.098715 102.637529
L 192.430883 102.305986
" clip-path="url(#p4cf2313242)" style="fill: none; stroke: #d55e00; stroke-width: 1.55; stroke-linecap: square"/>
    <defs>
     <path id="me4ad3f43ac" d="M 0 2.1
C 0.556927 2.1 1.091118 1.878731 1.484924 1.484924
C 1.878731 1.091118 2.1 0.556927 2.1 0
C 2.1 -0.556927 1.878731 -1.091118 1.484924 -1.484924
C 1.091118 -1.878731 0.556927 -2.1 0 -2.1
C -0.556927 -2.1 -1.091118 -1.878731 -1.484924 -1.484924
C -1.878731 -1.091118 -2.1 -0.556927 -2.1 0
C -2.1 0.556927 -1.878731 1.091118 -1.484924 1.484924
C -1.091118 1.878731 -0.556927 2.1 0 2.1
z
" style="stroke: #ffffff; stroke-width: 0.45"/>
    </defs>
    <g clip-path="url(#p4cf2313242)">
     <use xlink:href="#me4ad3f43ac" x="67.766547" y="102.637529" style="fill: #d55e00; stroke: #ffffff; stroke-width: 0.45"/>
     <use xlink:href="#me4ad3f43ac" x="130.098715" y="102.637529" style="fill: #d55e00; stroke: #ffffff; stroke-width: 0.45"/>
     <use xlink:href="#me4ad3f43ac" x="192.430883" y="102.305986" style="fill: #d55e00; stroke: #ffffff; stroke-width: 0.45"/>
    </g>
   </g>
   <g id="line2d_22">
    <path d="M 67.766547 101.477129
L 130.098715 102.637529
L 192.430883 102.637529
" clip-path="url(#p4cf2313242)" style="fill: none; stroke-dasharray: 5.735,2.48; stroke-dashoffset: 0; stroke: #d55e00; stroke-width: 1.55"/>
    <defs>
     <path id="m19a9acbb59" d="M -2.1 2.1
L 2.1 2.1
L 2.1 -2.1
L -2.1 -2.1
z
" style="stroke: #ffffff; stroke-width: 0.45; stroke-linejoin: miter"/>
    </defs>
    <g clip-path="url(#p4cf2313242)">
     <use xlink:href="#m19a9acbb59" x="67.766547" y="101.477129" style="fill: #d55e00; stroke: #ffffff; stroke-width: 0.45; stroke-linejoin: miter"/>
     <use xlink:href="#m19a9acbb59" x="130.098715" y="102.637529" style="fill: #d55e00; stroke: #ffffff; stroke-width: 0.45; stroke-linejoin: miter"/>
     <use xlink:href="#m19a9acbb59" x="192.430883" y="102.637529" style="fill: #d55e00; stroke: #ffffff; stroke-width: 0.45; stroke-linejoin: miter"/>
    </g>
   </g>
   <g id="line2d_23">
    <path d="M 67.766547 102.637529
L 130.098715 102.637529
L 192.430883 102.305986
" clip-path="url(#p4cf2313242)" style="fill: none; stroke: #009e73; stroke-width: 1.55; stroke-linecap: square"/>
    <defs>
     <path id="md7bf1f9acd" d="M 0 2.1
C 0.556927 2.1 1.091118 1.878731 1.484924 1.484924
C 1.878731 1.091118 2.1 0.556927 2.1 0
C 2.1 -0.556927 1.878731 -1.091118 1.484924 -1.484924
C 1.091118 -1.878731 0.556927 -2.1 0 -2.1
C -0.556927 -2.1 -1.091118 -1.878731 -1.484924 -1.484924
C -1.878731 -1.091118 -2.1 -0.556927 -2.1 0
C -2.1 0.556927 -1.878731 1.091118 -1.484924 1.484924
C -1.091118 1.878731 -0.556927 2.1 0 2.1
z
" style="stroke: #ffffff; stroke-width: 0.45"/>
    </defs>
    <g clip-path="url(#p4cf2313242)">
     <use xlink:href="#md7bf1f9acd" x="67.766547" y="102.637529" style="fill: #009e73; stroke: #ffffff; stroke-width: 0.45"/>
     <use xlink:href="#md7bf1f9acd" x="130.098715" y="102.637529" style="fill: #009e73; stroke: #ffffff; stroke-width: 0.45"/>
     <use xlink:href="#md7bf1f9acd" x="192.430883" y="102.305986" style="fill: #009e73; stroke: #ffffff; stroke-width: 0.45"/>
    </g>
   </g>
   <g id="line2d_24">
    <path d="M 67.766547 102.471758
L 130.098715 102.637529
L 192.430883 102.471758
" clip-path="url(#p4cf2313242)" style="fill: none; stroke-dasharray: 5.735,2.48; stroke-dashoffset: 0; stroke: #009e73; stroke-width: 1.55"/>
    <defs>
     <path id="mcc0ef57444" d="M -2.1 2.1
L 2.1 2.1
L 2.1 -2.1
L -2.1 -2.1
z
" style="stroke: #ffffff; stroke-width: 0.45; stroke-linejoin: miter"/>
    </defs>
    <g clip-path="url(#p4cf2313242)">
     <use xlink:href="#mcc0ef57444" x="67.766547" y="102.471758" style="fill: #009e73; stroke: #ffffff; stroke-width: 0.45; stroke-linejoin: miter"/>
     <use xlink:href="#mcc0ef57444" x="130.098715" y="102.637529" style="fill: #009e73; stroke: #ffffff; stroke-width: 0.45; stroke-linejoin: miter"/>
     <use xlink:href="#mcc0ef57444" x="192.430883" y="102.471758" style="fill: #009e73; stroke: #ffffff; stroke-width: 0.45; stroke-linejoin: miter"/>
    </g>
   </g>
   <g id="line2d_25">
    <path d="M 54.710788 102.518129
L 141.681165 90.262926
L 199.661417 93.201239
" clip-path="url(#p4cf2313242)" style="fill: none; stroke: #0072b2; stroke-width: 1.55; stroke-linecap: square"/>
    <defs>
     <path id="mbf9f2310a5" d="M 0 2.1
C 0.556927 2.1 1.091118 1.878731 1.484924 1.484924
C 1.878731 1.091118 2.1 0.556927 2.1 0
C 2.1 -0.556927 1.878731 -1.091118 1.484924 -1.484924
C 1.091118 -1.878731 0.556927 -2.1 0 -2.1
C -0.556927 -2.1 -1.091118 -1.878731 -1.484924 -1.484924
C -1.878731 -1.091118 -2.1 -0.556927 -2.1 0
C -2.1 0.556927 -1.878731 1.091118 -1.484924 1.484924
C -1.091118 1.878731 -0.556927 2.1 0 2.1
z
" style="stroke: #ffffff; stroke-width: 0.45"/>
    </defs>
    <g clip-path="url(#p4cf2313242)">
     <use xlink:href="#mbf9f2310a5" x="54.710788" y="102.518129" style="fill: #0072b2; stroke: #ffffff; stroke-width: 0.45"/>
     <use xlink:href="#mbf9f2310a5" x="141.681165" y="90.262926" style="fill: #0072b2; stroke: #ffffff; stroke-width: 0.45"/>
     <use xlink:href="#mbf9f2310a5" x="199.661417" y="93.201239" style="fill: #0072b2; stroke: #ffffff; stroke-width: 0.45"/>
    </g>
   </g>
   <g id="line2d_26">
    <path d="M 66.995256 51.781723
L 121.690775 95.188705
L 203.734052 88.489327
" clip-path="url(#p4cf2313242)" style="fill: none; stroke-dasharray: 5.735,2.48; stroke-dashoffset: 0; stroke: #0072b2; stroke-width: 1.55"/>
    <defs>
     <path id="mb92fdcbb6c" d="M -2.1 2.1
L 2.1 2.1
L 2.1 -2.1
L -2.1 -2.1
z
" style="stroke: #ffffff; stroke-width: 0.45; stroke-linejoin: miter"/>
    </defs>
    <g clip-path="url(#p4cf2313242)">
     <use xlink:href="#mb92fdcbb6c" x="66.995256" y="51.781723" style="fill: #0072b2; stroke: #ffffff; stroke-width: 0.45; stroke-linejoin: miter"/>
     <use xlink:href="#mb92fdcbb6c" x="121.690775" y="95.188705" style="fill: #0072b2; stroke: #ffffff; stroke-width: 0.45; stroke-linejoin: miter"/>
     <use xlink:href="#mb92fdcbb6c" x="203.734052" y="88.489327" style="fill: #0072b2; stroke: #ffffff; stroke-width: 0.45; stroke-linejoin: miter"/>
    </g>
   </g>
   <g id="legend_1">
    <g id="line2d_27">
     <path d="M 161.929469 20.534781
L 166.346969 20.534781
L 170.764469 20.534781
" style="fill: none; stroke: #d55e00; stroke-width: 2; stroke-linecap: square"/>
    </g>
    <g id="text_14">
     <text style="font-size: 5.7px; font-family: 'DejaVu Sans', sans-serif; text-anchor: start" x="175.324469" y="22.529781" transform="rotate(-0 175.324469 22.529781)">Basis Sharing</text>
    </g>
    <g id="line2d_28">
     <path d="M 161.929469 28.901313
L 166.346969 28.901313
L 170.764469 28.901313
" style="fill: none; stroke: #009e73; stroke-width: 2; stroke-linecap: square"/>
    </g>
    <g id="text_15">
     <text style="font-size: 5.7px; font-family: 'DejaVu Sans', sans-serif; text-anchor: start" x="175.324469" y="30.896313" transform="rotate(-0 175.324469 30.896313)">SVD-LLM</text>
    </g>
    <g id="line2d_29">
     <path d="M 161.929469 37.267844
L 166.346969 37.267844
L 170.764469 37.267844
" style="fill: none; stroke: #0072b2; stroke-width: 2; stroke-linecap: square"/>
    </g>
    <g id="text_16">
     <text style="font-size: 5.7px; font-family: 'DejaVu Sans', sans-serif; text-anchor: start" x="175.324469" y="39.262844" transform="rotate(-0 175.324469 39.262844)">Ours</text>
    </g>
   </g>
   <g id="legend_2">
    <g id="line2d_30">
     <path d="M 42.51375 124.21825
L 46.64625 124.21825
L 50.77875 124.21825
" style="fill: none; stroke: #555555; stroke-width: 1.2; stroke-linecap: square"/>
     <defs>
      <path id="mf582e58ca7" d="M 0 2.1
C 0.556927 2.1 1.091118 1.878731 1.484924 1.484924
C 1.878731 1.091118 2.1 0.556927 2.1 0
C 2.1 -0.556927 1.878731 -1.091118 1.484924 -1.484924
C 1.091118 -1.878731 0.556927 -2.1 0 -2.1
C -0.556927 -2.1 -1.091118 -1.878731 -1.484924 -1.484924
C -1.878731 -1.091118 -2.1 -0.556927 -2.1 0
C -2.1 0.556927 -1.878731 1.091118 -1.484924 1.484924
C -1.091118 1.878731 -0.556927 2.1 0 2.1
z
" style="stroke: #555555"/>
     </defs>
     <g>
      <use xlink:href="#mf582e58ca7" x="46.64625" y="124.21825" style="fill: #555555; stroke: #555555"/>
     </g>
    </g>
    <g id="text_17">
     <text style="font-size: 5.7px; font-family: 'DejaVu Sans', sans-serif; text-anchor: start" x="55.33875" y="126.21325" transform="rotate(-0 55.33875 126.21325)">3B</text>
    </g>
    <g id="line2d_31">
     <path d="M 74.276109 124.21825
L 78.408609 124.21825
L 82.541109 124.21825
" style="fill: none; stroke-dasharray: 4.44,1.92; stroke-dashoffset: 0; stroke: #555555; stroke-width: 1.2"/>
     <defs>
      <path id="m8002692011" d="M -2.1 2.1
L 2.1 2.1
L 2.1 -2.1
L -2.1 -2.1
z
" style="stroke: #555555; stroke-linejoin: miter"/>
     </defs>
     <g>
      <use xlink:href="#m8002692011" x="78.408609" y="124.21825" style="fill: #555555; stroke: #555555; stroke-linejoin: miter"/>
     </g>
    </g>
    <g id="text_18">
     <text style="font-size: 5.7px; font-family: 'DejaVu Sans', sans-serif; text-anchor: start" x="87.101109" y="126.21325" transform="rotate(-0 87.101109 126.21325)">8B</text>
    </g>
   </g>
  </g>
 </g>
 <defs>
  <clipPath id="p4cf2313242">
   <rect x="39.09375" y="14.778672" width="178.27" height="116.04"/>
  </clipPath>
 </defs>
</svg>
